<?xml version="1.0" encoding="utf-8"?>
<!-- Generator: Adobe Illustrator 27.0.1, SVG Export Plug-In . SVG Version: 6.00 Build 0)  -->
<svg version="1.1" id="Layer_1" xmlns="http://www.w3.org/2000/svg" xmlns:xlink="http://www.w3.org/1999/xlink" x="0px" y="0px"
	 viewBox="0 0 250 100" style="enable-background:new 0 0 250 100;" xml:space="preserve">
<style type="text/css">
	.st0{fill:#103558;}
	.st1{fill:#EEE7A9;}
</style>
<rect class="st0" width="250" height="100"/>
<g>
	<g>
		<g>
			<path class="st1" d="M142.2,54.3h-34.4V27.3c0-9.3,7.5-16.8,16.8-16.8h0.8c9.3,0,16.8,7.5,16.8,16.8V54.3z M108.1,54.1h33.8V27.3
				c0-9.1-7.4-16.5-16.5-16.5h-0.8c-9.1,0-16.5,7.4-16.5,16.5V54.1z"/>
		</g>
		<path class="st1" d="M133.5,26v0.2h2.4L132,46.9l-4-20.7h2V26h-5.3v0.2h2l1,6.7l-3,14.1l-2.3-13.1c-0.1-0.6-0.3-1.1-0.6-1.4
			c-0.3-0.4-0.9-0.6-1.5-0.8c1.1-0.2,1.9-0.7,2.3-1.4c0.5-0.7,0.7-1.7,0.7-2.9v-4.1c0-1.5-0.3-2.6-1-3.3c-0.7-0.7-1.9-1.1-3.6-1.1
			h-5.4v0.2h2v24.1h-2v0.2h5.3v-0.2h-2V31.8h2.3c0.6,0,1,0.2,1.4,0.5c0.4,0.3,0.6,0.9,0.7,1.6l2.7,16.6h0.7l3.3-16.5l3.4,16.5h0.7
			l4.4-24.3h2.2V26H133.5z M118.3,31.6h-1.8V19.2h1.8c1.2,0,2.1,0.3,2.7,0.9c0.6,0.6,0.8,1.6,0.8,3v4.7c0,1.4-0.3,2.4-0.8,3
			C120.5,31.3,119.6,31.6,118.3,31.6z"/>
	</g>
	<g>
		<g>
			<path class="st1" d="M35,79h1.9V60.7H35v-0.1h5.1c1.6,0,2.7,0.2,3.4,0.6c0.6,0.4,1,1.1,1,2v2.4c0,0.7-0.2,1.3-0.7,1.7
				c-0.4,0.4-1.2,0.7-2.2,0.8c0.6,0.1,1.1,0.2,1.4,0.5c0.3,0.2,0.5,0.5,0.6,0.8l1.6,9.5h1.9v0.1h-5V79H44l-1.6-9.5
				c-0.1-0.5-0.3-0.8-0.7-1c-0.4-0.2-0.8-0.3-1.3-0.3h-2.2V79h1.9v0.1h-5V79z M39.9,68.2c1.2,0,2-0.2,2.6-0.5
				c0.5-0.4,0.8-0.9,0.8-1.8V63c0-0.8-0.3-1.4-0.8-1.8c-0.5-0.4-1.4-0.5-2.6-0.5h-1.7v7.4H39.9z"/>
			<path class="st1" d="M56.4,79.3c-1.5,0-2.6-0.2-3.2-0.7c-0.6-0.5-0.9-1.1-0.9-2V63.2c0-0.9,0.3-1.6,0.9-2
				c0.6-0.5,1.7-0.7,3.2-0.7c1.5,0,2.6,0.2,3.2,0.7c0.6,0.5,0.9,1.1,0.9,2v13.4c0,0.9-0.3,1.6-0.9,2C58.9,79.1,57.9,79.3,56.4,79.3z
				 M56.4,60.6c-1.1,0-1.8,0.2-2.2,0.6c-0.4,0.4-0.6,1-0.6,1.8v13.7c0,0.8,0.2,1.4,0.6,1.8c0.4,0.4,1.2,0.6,2.2,0.6
				c1.1,0,1.8-0.2,2.2-0.6c0.4-0.4,0.6-1,0.6-1.8V63c0-0.8-0.2-1.4-0.6-1.8C58.2,60.8,57.4,60.6,56.4,60.6z"/>
			<path class="st1" d="M68.9,60.7l3,9.9l2.6-9.9h-2.4v-0.1h5v0.1h-2.4L72,71.3V79h1.9v0.1h-5V79h1.9v-7.4l-3.3-10.8h-1.8v-0.1h5
				v0.1H68.9z"/>
			<path class="st1" d="M86.6,79h1.8l-1.1-5h-5.1L81,79h2.3v0.1h-4.6V79h2.1l4.2-18.4h0.6L89.7,79h1.9v0.1h-5V79z M87.3,73.8
				l-2.6-11.1l-2.5,11.1H87.3z"/>
			<path class="st1" d="M95.8,79h1.9V60.7h-1.9v-0.1h5v0.1H99V79h4.4l1-5.4h0.2v5.6h-8.8V79z"/>
			<path class="st1" d="M110.1,79h1.9V60.7h-1.9v-0.1h8.6v5.6h-0.2l-1-5.4h-4.2v9.1h3.1l0.8-3h0.2v6.1h-0.2l-0.8-3h-3.1V79h4.4
				l1-5.4h0.2v5.6h-8.8V79z"/>
			<path class="st1" d="M140.3,60.7h-1.8l3.7,16.2l2.8-12.2l-0.9-4h-1.8v-0.1h5v0.1h-1.8l3.7,16.2l3.7-16.2h-2.3v-0.1h4.6v0.1h-2.1
				l-4.2,18.4h-0.6l-3.2-13.8L142,79.1h-0.6l-4.2-18.4h-1.8v-0.1h5V60.7z"/>
			<path class="st1" d="M164.3,79.3c-1.5,0-2.6-0.2-3.2-0.7c-0.6-0.5-0.9-1.1-0.9-2V63.2c0-0.9,0.3-1.6,0.9-2
				c0.6-0.5,1.7-0.7,3.2-0.7c1.5,0,2.6,0.2,3.2,0.7c0.6,0.5,0.9,1.1,0.9,2v13.4c0,0.9-0.3,1.6-0.9,2
				C166.9,79.1,165.8,79.3,164.3,79.3z M164.3,60.6c-1.1,0-1.8,0.2-2.2,0.6c-0.4,0.4-0.6,1-0.6,1.8v13.7c0,0.8,0.2,1.4,0.6,1.8
				c0.4,0.4,1.2,0.6,2.2,0.6c1.1,0,1.8-0.2,2.2-0.6c0.4-0.4,0.6-1,0.6-1.8V63c0-0.8-0.2-1.4-0.6-1.8
				C166.1,60.8,165.4,60.6,164.3,60.6z"/>
			<path class="st1" d="M174.2,79h1.9V60.7h-1.9v-0.1h5.1c1.6,0,2.7,0.2,3.4,0.6c0.6,0.4,1,1.1,1,2v2.4c0,0.7-0.2,1.3-0.7,1.7
				c-0.4,0.4-1.2,0.7-2.2,0.8c0.6,0.1,1.1,0.2,1.4,0.5c0.3,0.2,0.5,0.5,0.6,0.8l1.6,9.5h1.9v0.1h-5V79h1.8l-1.6-9.5
				c-0.1-0.5-0.3-0.8-0.7-1c-0.4-0.2-0.8-0.3-1.3-0.3h-2.2V79h1.9v0.1h-5V79z M179.1,68.2c1.2,0,2-0.2,2.6-0.5
				c0.5-0.4,0.8-0.9,0.8-1.8V63c0-0.8-0.3-1.4-0.8-1.8c-0.5-0.4-1.4-0.5-2.6-0.5h-1.7v7.4H179.1z"/>
			<path class="st1" d="M190.2,60.6h5v0.1h-1.9V70l5.8-9.2h-2.3v-0.1h4.6v0.1h-2.1l-3.4,5.3l4.2,13h1.8v0.1h-5V79h1.8l-3.7-11.6
				l-1.9,3V79h1.9v0.1h-5V79h1.9V60.7h-1.9V60.6z"/>
			<path class="st1" d="M207.2,63.2c0-0.9,0.3-1.6,0.9-2c0.6-0.5,1.6-0.7,2.9-0.7c0.7,0,1.2,0,1.7,0.1c0.4,0.1,0.8,0.2,1.1,0.4
				c0.3,0.1,0.6,0.3,0.8,0.5V66h-0.2l-1.1-5c-0.1-0.1-0.4-0.2-0.7-0.3c-0.3-0.1-0.7-0.1-1.3-0.1c-1,0-1.7,0.2-2.1,0.6
				s-0.7,1-0.7,1.8v1.4c0,0.8,0.2,1.4,0.5,2c0.3,0.6,0.7,1.1,1.2,1.6c0.5,0.5,1,1,1.6,1.4c0.6,0.4,1.1,0.9,1.6,1.4
				c0.5,0.5,0.9,1,1.2,1.6c0.3,0.6,0.5,1.3,0.5,2.1v2c0,0.9-0.3,1.6-1,2c-0.6,0.5-1.7,0.7-3.1,0.7c-0.7,0-1.3-0.1-1.8-0.2
				c-0.5-0.1-0.8-0.2-1.2-0.3c-0.3-0.1-0.6-0.3-0.8-0.5v-4.6h0.2l1.1,5c0.1,0.1,0.4,0.2,0.7,0.3c0.3,0.1,0.8,0.1,1.4,0.1
				c1.1,0,1.8-0.2,2.3-0.6c0.5-0.4,0.7-1,0.7-1.8v-2.3c0-0.7-0.2-1.3-0.5-1.8c-0.3-0.5-0.7-1-1.2-1.5c-0.5-0.5-1-0.9-1.6-1.4
				c-0.6-0.4-1.1-0.9-1.6-1.4c-0.5-0.5-0.9-1-1.2-1.6c-0.3-0.6-0.5-1.3-0.5-2V63.2z"/>
		</g>
		<g>
			<path class="st1" d="M72.4,85.4h-0.7c0-0.2-0.1-0.4-0.2-0.5c-0.1-0.2-0.2-0.3-0.4-0.4c-0.1-0.1-0.3-0.2-0.5-0.2s-0.4-0.1-0.6-0.1
				c-0.4,0-0.7,0.1-1,0.3c-0.3,0.2-0.5,0.4-0.7,0.8c-0.2,0.3-0.3,0.8-0.3,1.3c0,0.5,0.1,0.9,0.3,1.3c0.2,0.3,0.4,0.6,0.7,0.8
				s0.6,0.3,1,0.3c0.2,0,0.4,0,0.6-0.1c0.2-0.1,0.3-0.1,0.5-0.2c0.1-0.1,0.3-0.2,0.4-0.4c0.1-0.2,0.2-0.3,0.2-0.5h0.7
				c-0.1,0.3-0.1,0.6-0.3,0.8c-0.1,0.2-0.3,0.4-0.5,0.6c-0.2,0.2-0.4,0.3-0.7,0.4c-0.3,0.1-0.5,0.1-0.8,0.1c-0.5,0-0.9-0.1-1.3-0.4
				c-0.4-0.2-0.7-0.6-0.9-1c-0.2-0.4-0.3-1-0.3-1.6c0-0.6,0.1-1.1,0.3-1.6c0.2-0.4,0.5-0.8,0.9-1c0.4-0.2,0.8-0.4,1.3-0.4
				c0.3,0,0.6,0,0.8,0.1c0.3,0.1,0.5,0.2,0.7,0.4c0.2,0.2,0.4,0.4,0.5,0.6C72.2,84.9,72.3,85.1,72.4,85.4z"/>
			<path class="st1" d="M77.5,89.4v-5.8h0.7v5.2h2.7v0.6H77.5z"/>
			<path class="st1" d="M86,89.4v-5.8h3.5v0.6h-2.8v2h2.6v0.6h-2.6v2h2.9v0.6H86z"/>
			<path class="st1" d="M95.1,89.4h-0.7l2.1-5.8h0.7l2.1,5.8h-0.7l-1.7-4.9h0L95.1,89.4z M95.3,87.1h3v0.6h-3V87.1z"/>
			<path class="st1" d="M108.9,83.6v5.8h-0.7l-3.2-4.6h-0.1v4.6h-0.7v-5.8h0.7l3.2,4.6h0.1v-4.6H108.9z"/>
			<path class="st1" d="M115,83.6v5.8h-0.7v-5.8H115z"/>
			<path class="st1" d="M125,83.6v5.8h-0.7l-3.2-4.6h-0.1v4.6h-0.7v-5.8h0.7l3.2,4.6h0.1v-4.6H125z"/>
			<path class="st1" d="M134.4,85.4c-0.1-0.2-0.1-0.4-0.2-0.5c-0.1-0.2-0.2-0.3-0.4-0.4c-0.1-0.1-0.3-0.2-0.5-0.2
				c-0.2-0.1-0.4-0.1-0.6-0.1c-0.3,0-0.7,0.1-0.9,0.3c-0.3,0.2-0.5,0.4-0.7,0.8c-0.2,0.3-0.3,0.8-0.3,1.3c0,0.5,0.1,0.9,0.3,1.3
				s0.4,0.6,0.7,0.8c0.3,0.2,0.6,0.3,1,0.3c0.3,0,0.6-0.1,0.9-0.2c0.3-0.1,0.5-0.3,0.6-0.6c0.1-0.3,0.2-0.6,0.2-0.9l0.2,0H133v-0.6
				h2.2v0.6c0,0.5-0.1,0.9-0.3,1.3c-0.2,0.4-0.5,0.6-0.8,0.8c-0.4,0.2-0.8,0.3-1.2,0.3c-0.5,0-1-0.1-1.4-0.4c-0.4-0.2-0.7-0.6-0.9-1
				c-0.2-0.4-0.3-1-0.3-1.6c0-0.5,0.1-0.9,0.2-1.2c0.1-0.4,0.3-0.7,0.5-0.9c0.2-0.3,0.5-0.5,0.8-0.6c0.3-0.1,0.7-0.2,1-0.2
				c0.3,0,0.6,0,0.9,0.1c0.3,0.1,0.5,0.2,0.7,0.4c0.2,0.2,0.4,0.4,0.5,0.6c0.1,0.2,0.2,0.5,0.3,0.8H134.4z"/>
			<path class="st1" d="M148.2,89.5c-0.4,0-0.7-0.1-1-0.2s-0.5-0.3-0.6-0.6s-0.2-0.5-0.2-0.8c0-0.2,0.1-0.5,0.2-0.6
				c0.1-0.2,0.2-0.4,0.4-0.5c0.2-0.2,0.4-0.3,0.6-0.5l0.8-0.6c0.2-0.1,0.3-0.2,0.4-0.3c0.1-0.1,0.1-0.3,0.1-0.5
				c0-0.1-0.1-0.3-0.2-0.4c-0.1-0.1-0.3-0.2-0.5-0.2c-0.1,0-0.3,0-0.4,0.1c-0.1,0.1-0.2,0.2-0.3,0.3c-0.1,0.1-0.1,0.2-0.1,0.4
				c0,0.1,0,0.3,0.1,0.4c0.1,0.1,0.2,0.3,0.3,0.4s0.2,0.3,0.4,0.4l2.7,3.3h-0.8l-2.2-2.7c-0.2-0.2-0.4-0.5-0.6-0.7
				c-0.2-0.2-0.3-0.4-0.4-0.6s-0.1-0.4-0.1-0.6c0-0.3,0.1-0.5,0.2-0.7c0.1-0.2,0.3-0.4,0.5-0.5c0.2-0.1,0.5-0.2,0.7-0.2
				c0.3,0,0.5,0.1,0.8,0.2c0.2,0.1,0.4,0.3,0.5,0.4c0.1,0.2,0.2,0.4,0.2,0.6c0,0.3-0.1,0.5-0.2,0.7c-0.1,0.2-0.3,0.4-0.6,0.6
				l-1.2,0.9c-0.3,0.2-0.4,0.4-0.5,0.6c-0.1,0.2-0.1,0.3-0.1,0.4c0,0.2,0,0.4,0.1,0.5c0.1,0.2,0.2,0.3,0.4,0.4
				c0.2,0.1,0.4,0.1,0.6,0.1c0.2,0,0.4,0,0.6-0.1c0.2-0.1,0.4-0.2,0.6-0.4c0.2-0.2,0.3-0.4,0.4-0.6c0.1-0.3,0.1-0.5,0.1-0.8h0.6
				c0,0.4,0,0.7-0.1,0.9c-0.1,0.2-0.2,0.4-0.3,0.6c-0.1,0.1-0.2,0.2-0.3,0.3c0,0,0,0.1-0.1,0.1c0,0,0,0.1-0.1,0.1
				c-0.2,0.2-0.4,0.4-0.7,0.5C148.8,89.5,148.5,89.5,148.2,89.5z"/>
			<path class="st1" d="M166.8,85.4h-0.7c0-0.2-0.1-0.4-0.2-0.5c-0.1-0.2-0.2-0.3-0.4-0.4c-0.1-0.1-0.3-0.2-0.5-0.2
				c-0.2-0.1-0.4-0.1-0.6-0.1c-0.4,0-0.7,0.1-1,0.3c-0.3,0.2-0.5,0.4-0.7,0.8c-0.2,0.3-0.3,0.8-0.3,1.3c0,0.5,0.1,0.9,0.3,1.3
				c0.2,0.3,0.4,0.6,0.7,0.8c0.3,0.2,0.6,0.3,1,0.3c0.2,0,0.4,0,0.6-0.1c0.2-0.1,0.3-0.1,0.5-0.2c0.1-0.1,0.3-0.2,0.4-0.4
				c0.1-0.2,0.2-0.3,0.2-0.5h0.7c-0.1,0.3-0.1,0.6-0.3,0.8c-0.1,0.2-0.3,0.4-0.5,0.6c-0.2,0.2-0.4,0.3-0.7,0.4s-0.5,0.1-0.8,0.1
				c-0.5,0-0.9-0.1-1.3-0.4c-0.4-0.2-0.7-0.6-0.9-1c-0.2-0.4-0.3-1-0.3-1.6c0-0.6,0.1-1.1,0.3-1.6c0.2-0.4,0.5-0.8,0.9-1
				c0.4-0.2,0.8-0.4,1.3-0.4c0.3,0,0.6,0,0.8,0.1s0.5,0.2,0.7,0.4c0.2,0.2,0.4,0.4,0.5,0.6C166.6,84.9,166.7,85.1,166.8,85.4z"/>
			<path class="st1" d="M176.8,86.5c0,0.6-0.1,1.1-0.3,1.6c-0.2,0.4-0.5,0.8-0.9,1c-0.4,0.2-0.8,0.4-1.3,0.4c-0.5,0-0.9-0.1-1.3-0.4
				c-0.4-0.2-0.7-0.6-0.9-1c-0.2-0.4-0.3-1-0.3-1.6c0-0.6,0.1-1.1,0.3-1.6c0.2-0.4,0.5-0.8,0.9-1c0.4-0.2,0.8-0.4,1.3-0.4
				c0.5,0,0.9,0.1,1.3,0.4c0.4,0.2,0.7,0.6,0.9,1C176.7,85.4,176.8,85.9,176.8,86.5z M176.1,86.5c0-0.5-0.1-0.9-0.3-1.3
				c-0.2-0.3-0.4-0.6-0.7-0.8c-0.3-0.2-0.6-0.3-1-0.3c-0.4,0-0.7,0.1-1,0.3c-0.3,0.2-0.5,0.4-0.7,0.8c-0.2,0.3-0.3,0.8-0.3,1.3
				c0,0.5,0.1,0.9,0.3,1.3s0.4,0.6,0.7,0.8c0.3,0.2,0.6,0.3,1,0.3c0.4,0,0.7-0.1,1-0.3c0.3-0.2,0.5-0.4,0.7-0.8
				C176.1,87.4,176.1,87,176.1,86.5z"/>
			<path class="st1" d="M182.1,89.5c-0.1,0-0.3-0.1-0.4-0.2c-0.1-0.1-0.2-0.2-0.2-0.4s0.1-0.3,0.2-0.4c0.1-0.1,0.2-0.2,0.4-0.2
				s0.3,0.1,0.4,0.2c0.1,0.1,0.2,0.2,0.2,0.4c0,0.1,0,0.2-0.1,0.3c0,0.1-0.1,0.1-0.2,0.2C182.2,89.4,182.1,89.5,182.1,89.5z"/>
		</g>
	</g>
</g>
</svg>
